# xmcd CD database file
#
# Track frame offsets:
#	150
#	17805
#	32912
#	54279
#	57100
#	69686
#	82976
#	101694
#	114842
#	131885
#	149645
#	171320
#
# Disc length: 2964 seconds
#
# Revision: 0
# Processed by: cddbd v1.5.1PL0 Copyright (c) Steve Scherf et al.
# Submitted via: CDex 1.51
#
DISCID=a80b920c
DTITLE=Still Standin' - Exit Sign
DYEAR=2005
DGENRE=Country
TTITLE0=Turn My Life
TTITLE1=Been In My Hand
TTITLE2=Exit Sign
TTITLE3=3 Drinks Intro
TTITLE4=3 Drinks
TTITLE5=Passion
TTITLE6=I Know You
TTITLE7=Catch 22
TTITLE8=Voices
TTITLE9=Change
TTITLE10=Words
TTITLE11=The Beer Song
EXTD=YEAR: 2005
EXTT0=
EXTT1=
EXTT2=
EXTT3=
EXTT4=
EXTT5=
EXTT6=
EXTT7=
EXTT8=
EXTT9=
EXTT10=
EXTT11=
PLAYORDER=
